{
  "accessors": [
    {
      "bufferView": 2,
      "componentType": 5126,
      "count": 4,
      "max": [
        0.5,
        0.0,
        0.5
      ],
      "min": [
        -0.5,
        0.0,
        -0.5
      ],
      "type": "VEC3"
    },
    {
      "bufferView": 2,
      "byteOffset": 48,
      "componentType": 5126,
      "count": 4,
      "max": [
        0.0,
        1.0,
        0.0
      ],
      "min": [
        0.0,
        1.0,
        0.0
      ],
      "type": "VEC3"
    },
    {
      "bufferView": 1,
      "componentType": 5126,
      "count": 4,
      "max": [
        1.0,
        1.0
      ],
      "min": [
        0.0,
        0.0
      ],
      "type": "VEC2"
    },
    {
      "bufferView": 0,
      "componentType": 5125,
      "count": 6,
      "type": "SCALAR"
    },
    {
      "bufferView": 2,
      "byteOffset": 96,
      "componentType": 5126,
      "count": 2732,
      "max": [
        0.7307472229003906,
        0.9080208539962769,
        3.0430240631103516
      ],
      "min": [
        -6.605144500732422,
        0.02148459292948246,
        -4.604000091552734
      ],
      "type": "VEC3"
    },
    {
      "bufferView": 2,
      "byteOffset": 32880,
      "componentType": 5126,
      "count": 2732,
      "max": [
        0.9989795088768005,
        1.0,
        0.9999948740005493
      ],
      "min": [
        -0.9989175796508789,
        -1.0,
        -0.9999372959136963
      ],
      "type": "VEC3"
    },
    {
      "bufferView": 1,
      "byteOffset": 32,
      "componentType": 5126,
      "count": 2732,
      "max": [
        0.7176874279975891,
        0.9918234348297119
      ],
      "min": [
        0.0,
        0.0
      ],
      "type": "VEC2"
    },
    {
      "bufferView": 0,
      "byteOffset": 24,
      "componentType": 5125,
      "count": 9672,
      "type": "SCALAR"
    },
    {
      "bufferView": 2,
      "byteOffset": 65664,
      "componentType": 5126,
      "count": 840,
      "max": [
        0.11125221103429794,
        0.5473327040672302,
        0.14865244925022125
      ],
      "min": [
        -0.24828478693962097,
        0.3754110038280487,
        0.13843132555484772
      ],
      "type": "VEC3"
    },
    {
      "bufferView": 2,
      "byteOffset": 75744,
      "componentType": 5126,
      "count": 840,
      "max": [
        0.9996793270111084,
        0.9999964237213135,
        1.0
      ],
      "min": [
        -0.9999986886978149,
        -0.9998156428337097,
        -1.0
      ],
      "type": "VEC3"
    },
    {
      "bufferView": 1,
      "byteOffset": 21888,
      "componentType": 5126,
      "count": 840,
      "max": [
        0.9842140674591064,
        0.6086487770080566
      ],
      "min": [
        -0.5310103893280029,
        -0.06876885890960693
      ],
      "type": "VEC2"
    },
    {
      "bufferView": 0,
      "byteOffset": 38712,
      "componentType": 5125,
      "count": 2064,
      "type": "SCALAR"
    }
  ],
  "asset": {
    "extras": {
      "author": "Don Anderson (https://sketchfab.com/dander36)",
      "license": "CC-BY-4.0 (http://creativecommons.org/licenses/by/4.0/)",
      "source": "https://sketchfab.com/3d-models/soul-eater-moon-2984fad7837d4d15815f57cdd453efed",
      "title": "Soul Eater Moon"
    },
    "generator": "Sketchfab-16.72.0",
    "version": "2.0"
  },
  "bufferViews": [
    {
      "buffer": 0,
      "byteLength": 46968,
      "name": "floatBufferViews",
      "target": 34963
    },
    {
      "buffer": 0,
      "byteLength": 28608,
      "byteOffset": 46968,
      "byteStride": 8,
      "name": "floatBufferViews",
      "target": 34962
    },
    {
      "buffer": 0,
      "byteLength": 85824,
      "byteOffset": 75576,
      "byteStride": 12,
      "name": "floatBufferViews",
      "target": 34962
    }
  ],
  "buffers": [
    {
      "byteLength": 161400,
      "uri": "scene.bin"
    }
  ],
  "images": [
    {
      "uri": "textures/Soul_Eater_Moon_Face_baseColor.png"
    },
    {
      "uri": "textures/Soul_Eater_Moon_Teeth_baseColor.png"
    }
  ],
  "materials": [
    {
      "doubleSided": true,
      "name": "Soul_Eater_Moon_Ref",
      "pbrMetallicRoughness": {
        "metallicFactor": 0.0,
        "roughnessFactor": 0.6
      }
    },
    {
      "doubleSided": true,
      "name": "Soul_Eater_Moon_Face",
      "pbrMetallicRoughness": {
        "baseColorTexture": {
          "index": 0
        },
        "metallicFactor": 0.0,
        "roughnessFactor": 0.6
      }
    },
    {
      "doubleSided": true,
      "name": "Soul_Eater_Moon_Teeth",
      "pbrMetallicRoughness": {
        "baseColorTexture": {
          "index": 1
        },
        "metallicFactor": 0.0,
        "roughnessFactor": 0.6
      }
    }
  ],
  "meshes": [
    {
      "name": "pPlane1_Soul_Eater_Moon_Ref_0",
      "primitives": [
        {
          "attributes": {
            "NORMAL": 1,
            "POSITION": 0,
            "TEXCOORD_0": 2
          },
          "indices": 3,
          "material": 0,
          "mode": 4
        }
      ]
    },
    {
      "name": "pPlane4_Soul_Eater_Moon_Face_0",
      "primitives": [
        {
          "attributes": {
            "NORMAL": 5,
            "POSITION": 4,
            "TEXCOORD_0": 6
          },
          "indices": 7,
          "material": 1,
          "mode": 4
        }
      ]
    },
    {
      "name": "pPlane13_Soul_Eater_Moon_Teeth_0",
      "primitives": [
        {
          "attributes": {
            "NORMAL": 9,
            "POSITION": 8,
            "TEXCOORD_0": 10
          },
          "indices": 11,
          "material": 2,
          "mode": 4
        }
      ]
    }
  ],
  "nodes": [
    {
      "children": [
        1
      ],
      "matrix": [
        1.0,
        0.0,
        0.0,
        0.0,
        0.0,
        2.220446049250313e-16,
        -1.0,
        0.0,
        0.0,
        1.0,
        2.220446049250313e-16,
        0.0,
        0.0,
        0.0,
        0.0,
        1.0
      ],
      "name": "Sketchfab_model"
    },
    {
      "children": [
        2
      ],
      "matrix": [
        0.009999999776482582,
        0.0,
        0.0,
        0.0,
        0.0,
        0.0,
        0.009999999776482582,
        0.0,
        0.0,
        -0.009999999776482582,
        0.0,
        0.0,
        0.0,
        0.0,
        0.0,
        1.0
      ],
      "name": "Soul_Eater_Moon.fbx"
    },
    {
      "children": [
        3,
        5
      ],
      "name": "RootNode"
    },
    {
      "children": [
        4
      ],
      "matrix": [
        1.8704537153244019,
        0.0,
        0.0,
        0.0,
        0.0,
        -2.220446049250313e-16,
        1.0,
        0.0,
        0.0,
        -1.0,
        -2.220446049250313e-16,
        0.0,
        0.0,
        0.6599006652832031,
        -0.8771610260009766,
        1.0
      ],
      "name": "pPlane1"
    },
    {
      "mesh": 0,
      "name": "pPlane1_Soul_Eater_Moon_Ref_0"
    },
    {
      "children": [
        6,
        8
      ],
      "matrix": [
        1432.06201171875,
        0.0,
        0.0,
        0.0,
        0.0,
        1432.06201171875,
        0.0,
        0.0,
        0.0,
        0.0,
        1432.06201171875,
        0.0,
        0.0,
        1040.0,
        0.0,
        1.0
      ],
      "name": "group2"
    },
    {
      "children": [
        7
      ],
      "matrix": [
        0.06558312659910946,
        0.0633280801767709,
        0.0,
        0.0,
        0.0,
        0.0,
        0.04023943096399307,
        0.0,
        0.0633280801767709,
        -0.06558312659910946,
        0.0,
        0.0,
        0.18879909813404083,
        0.7729367613792419,
        0.0,
        1.0
      ],
      "name": "pPlane4"
    },
    {
      "mesh": 1,
      "name": "pPlane4_Soul_Eater_Moon_Face_0"
    },
    {
      "children": [
        9
      ],
      "matrix": [
        1.0,
        0.0,
        0.0,
        0.0,
        0.0,
        1.0,
        0.0,
        0.0,
        0.0,
        0.0,
        1.0,
        0.0,
        0.0,
        0.0,
        -0.11546914279460907,
        1.0
      ],
      "name": "pPlane13"
    },
    {
      "mesh": 2,
      "name": "pPlane13_Soul_Eater_Moon_Teeth_0"
    }
  ],
  "samplers": [
    {
      "magFilter": 9729,
      "minFilter": 9987,
      "wrapS": 10497,
      "wrapT": 10497
    }
  ],
  "scene": 0,
  "scenes": [
    {
      "name": "Sketchfab_Scene",
      "nodes": [
        0
      ]
    }
  ],
  "textures": [
    {
      "sampler": 0,
      "source": 0
    },
    {
      "sampler": 0,
      "source": 1
    }
  ]
}
